<?xml version="1.0" standalone="no"?>
<!DOCTYPE svg PUBLIC "-//W3C//DTD SVG 20010904//EN"
 "http://www.w3.org/TR/2001/REC-SVG-20010904/DTD/svg10.dtd">
<svg version="1.0" xmlns="http://www.w3.org/2000/svg"
 width="512.000000pt" height="512.000000pt" viewBox="0 0 512.000000 512.000000"
 preserveAspectRatio="xMidYMid meet">

<g transform="translate(0.000000,512.000000) scale(0.100000,-0.100000)"
fill="#000000" stroke="none">
<path d="M2321 5110 c-497 -48 -990 -251 -1376 -565 -114 -92 -294 -274 -384
-387 -229 -287 -417 -675 -495 -1023 -49 -218 -60 -325 -60 -575 0 -250 11
-357 60 -575 79 -355 272 -749 509 -1040 92 -114 274 -294 387 -384 287 -229
675 -417 1023 -495 218 -49 325 -60 575 -60 250 0 357 11 575 60 261 58 603
204 828 353 389 259 688 599 893 1016 125 255 196 484 241 775 24 161 24 539
0 700 -45 291 -116 520 -241 775 -134 272 -283 480 -498 692 -211 209 -404
346 -673 478 -252 124 -486 197 -765 240 -126 19 -468 27 -599 15z m594 -339
c240 -40 419 -98 640 -206 570 -280 1011 -818 1170 -1431 54 -207 69 -331 69
-574 0 -243 -15 -367 -69 -574 -159 -613 -600 -1151 -1170 -1431 -221 -108
-397 -165 -645 -207 -180 -31 -520 -31 -700 0 -248 42 -424 99 -645 207 -570
280 -1011 818 -1170 1431 -54 207 -69 331 -69 574 0 243 15 367 69 574 55 212
170 470 290 651 382 574 972 932 1660 1005 129 14 434 4 570 -19z"/>
<path d="M1435 3680 l-110 -110 185 -185 185 -185 -208 0 -207 0 0 -160 0
-160 413 0 c385 0 415 2 454 20 46 20 79 64 89 117 14 72 0 90 -349 441 -183
182 -334 332 -337 332 -3 0 -55 -50 -115 -110z"/>
<path d="M3228 3453 c-292 -294 -337 -343 -343 -375 -10 -54 1 -102 32 -139
50 -59 53 -59 508 -59 l415 0 0 160 0 160 -207 0 -208 0 185 185 185 185 -110
110 c-60 60 -112 110 -115 110 -3 0 -157 -152 -342 -337z"/>
<path d="M1375 2386 c-42 -18 -83 -69 -91 -112 -23 -122 42 -427 127 -596 179
-358 509 -610 909 -695 117 -24 363 -24 480 0 271 57 492 178 678 371 225 233
353 535 356 838 1 116 -7 137 -68 182 -27 21 -33 21 -1194 23 -955 2 -1173 0
-1197 -11z m2119 -366 c-82 -350 -364 -630 -724 -717 -103 -25 -317 -25 -420
0 -360 87 -642 367 -724 717 l-14 60 948 0 948 0 -14 -60z"/>
</g>
</svg>
